HIERARCHY
ROOT SpineBase
{
  OFFSET 0.000000 0.000000 0.000000
  CHANNELS 6 Xposition Yposition Zposition Zrotation Xrotation Yrotation
  JOINT SpineMid
  {
    OFFSET 0.000000 33.563386 0.000000
    CHANNELS 3 Zrotation Xrotation Yrotation
    JOINT SpineShoulder
    {
      OFFSET 0.092560 25.060641 -0.625059
      CHANNELS 3 Zrotation Xrotation Yrotation
      JOINT Neck
      {
        OFFSET 0.070393 8.299794 -0.537851
        CHANNELS 3 Zrotation Xrotation Yrotation
        JOINT Head
        {
          OFFSET -2.337239 14.263051 0.356953
          CHANNELS 3 Zrotation Xrotation Yrotation
          End Site
          {
            OFFSET 0 0 0
          }
        }
      }
      JOINT ShoulderLeft
      {
        OFFSET -12.273702 -19.751428 -5.652562
        CHANNELS 3 Zrotation Xrotation Yrotation
        JOINT ElbowLeft
        {
          OFFSET -16.274657 -5.092888 14.003485
          CHANNELS 3 Zrotation Xrotation Yrotation
          JOINT WristLeft
          {
            OFFSET 10.582936 -23.755139 -10.519333
            CHANNELS 3 Zrotation Xrotation Yrotation
            JOINT HandLeft
            {
              OFFSET 4.818524 -6.520861 -4.902640
              CHANNELS 3 Zrotation Xrotation Yrotation
              JOINT HandTipLeft
              {
                OFFSET 3.495385 -6.690821 0.568446
                CHANNELS 3 Zrotation Xrotation Yrotation
                End Site
                {
                  OFFSET 0 0 0
                }
              }
              JOINT ThumbLeft
              {
                OFFSET 3.603390 3.580694 -4.630981
                CHANNELS 3 Zrotation Xrotation Yrotation
                End Site
                {
                  OFFSET 0 0 0
                }
              }
            }
          }
        }
      }
      JOINT ShoulderRight
      {
        OFFSET 12.960354 -2.386590 -4.126125
        CHANNELS 3 Zrotation Xrotation Yrotation
        JOINT ElbowRight
        {
          OFFSET 7.573341 -29.280745 3.661195
          CHANNELS 3 Zrotation Xrotation Yrotation
          JOINT WristRight
          {
            OFFSET 2.812996 -24.998440 -4.634819
            CHANNELS 3 Zrotation Xrotation Yrotation
            JOINT HandRight
            {
              OFFSET -1.303168 -5.017653 0.846417
              CHANNELS 3 Zrotation Xrotation Yrotation
              JOINT HandTipRight
              {
                OFFSET 0.691997 -6.573622 0.375639
                CHANNELS 3 Zrotation Xrotation Yrotation
                End Site
                {
                  OFFSET 0 0 0
                }
              }
              JOINT ThumbRight
              {
                OFFSET 3.355338 1.724157 -1.873477
                CHANNELS 3 Zrotation Xrotation Yrotation
                End Site
                {
                  OFFSET 0 0 0
                }
              }
            }
          }
        }
      }
    }
  }
  JOINT HipLeft
  {
    OFFSET -6.460490 0.318785 -5.386904
    CHANNELS 3 Zrotation Xrotation Yrotation
    JOINT KneeLeft
    {
      OFFSET -3.558719 -33.961147 10.294346
      CHANNELS 3 Zrotation Xrotation Yrotation
      JOINT AnkleLeft
      {
        OFFSET -1.741355 -31.382949 6.131295
        CHANNELS 3 Zrotation Xrotation Yrotation
        JOINT FootLeft
        {
          OFFSET -2.264150 -7.621063 -5.866795
          CHANNELS 3 Zrotation Xrotation Yrotation
          End Site
          {
            OFFSET 0 0 0
          }
        }
      }
    }
  }
  JOINT HipRight
  {
    OFFSET 6.758745 1.688538 -1.803766
    CHANNELS 3 Zrotation Xrotation Yrotation
    JOINT KneeRight
    {
      OFFSET 2.129307 -35.296562 1.498340
      CHANNELS 3 Zrotation Xrotation Yrotation
      JOINT AnkleRight
      {
        OFFSET 0.438927 -31.341311 3.480987
        CHANNELS 3 Zrotation Xrotation Yrotation
        JOINT FootRight
        {
          OFFSET -1.085689 -7.651629 -6.516601
          CHANNELS 3 Zrotation Xrotation Yrotation
          End Site
          {
            OFFSET 0 0 0
          }
        }
      }
    }
  }
}
MOTION
Frames: 9
Frame Time: 0.033333
-15.493360 73.200227 350.941844 -0.000000 0.000000 -15.165895 0.000000 0.000000 15.165895 -0.000000 0.000000 0.000000 -0.000000 0.000000 0.000000 0.000000 0.000000 0.000000 -0.000000 0.000000 0.000000 -0.000000 0.000000 0.000000 -0.000000 0.000000 0.000000 -0.000000 0.000000 0.000000 0.000000 0.000000 0.000000 0.000000 0.000000 0.000000 -0.000000 0.000000 0.000000 -0.000000 0.000000 0.000000 -0.000000 0.000000 0.000000 -0.000000 0.000000 0.000000 0.000000 0.000000 0.000000 0.000000 0.000000 0.000000 0.000000 0.000000 15.165895 -0.000000 0.000000 0.000000 -0.000000 0.000000 0.000000 0.000000 0.000000 0.000000 0.000000 0.000000 15.165895 -0.000000 0.000000 0.000000 -0.000000 0.000000 0.000000 0.000000 0.000000 0.000000
-15.090659 73.249975 351.153375 0.473949 -0.149609 -15.720097 -0.496756 0.015599 15.720783 -0.000000 0.000000 0.000000 -0.000000 0.000000 0.000000 0.000000 0.000000 0.000000 3.338026 2.580137 1.016938 -3.386546 -2.516082 -1.166523 -1.068305 -0.139714 0.704162 -0.572718 0.251886 -0.786628 0.000000 0.000000 0.000000 0.000000 0.000000 0.000000 -0.000000 0.000000 0.000000 -0.000000 0.000000 0.000000 1.206772 5.612324 -1.328923 -0.815271 -4.202565 1.406807 0.000000 0.000000 0.000000 0.000000 0.000000 0.000000 -0.496756 0.015599 15.720783 -0.000000 0.000000 0.000000 -0.000000 0.000000 0.000000 0.000000 0.000000 0.000000 -0.496756 0.015599 15.720783 -0.000000 0.000000 0.000000 -0.000000 0.000000 0.000000 0.000000 0.000000 0.000000
-14.742961 73.308456 351.340620 0.872939 -0.272424 -16.135218 -0.914258 0.019076 16.137446 -0.000000 0.000000 0.000000 -0.000000 0.000000 0.000000 0.000000 0.000000 0.000000 5.796334 4.516888 1.755202 -5.948741 -4.313874 -2.208242 -1.782716 -0.059881 1.310772 -1.707918 0.298941 -1.498102 0.000000 0.000000 0.000000 0.000000 0.000000 0.000000 -0.000000 0.000000 0.000000 -0.684069 0.473038 0.182867 3.015791 9.476121 -2.613376 -1.802863 -7.356197 2.394658 0.000000 0.000000 0.000000 0.000000 0.000000 0.000000 -2.171556 -0.157707 15.736366 1.258119 -0.170845 0.401435 1.014281 0.586480 -0.958979 0.000000 0.000000 0.000000 -1.942927 -0.076771 16.105524 1.014888 -0.193271 0.033115 -0.837191 -0.222266 0.743376 0.000000 0.000000 0.000000
-14.450265 73.375670 351.503580 1.197175 -0.368502 -16.413244 -0.462835 -0.197849 16.437488 -0.697142 0.427727 -0.016367 -0.000000 0.000000 0.000000 0.000000 0.000000 0.000000 7.384464 5.770026 2.297912 -8.719276 -5.654636 -2.796956 -1.043664 0.554333 1.465510 -3.370814 0.126881 -2.124414 0.000000 0.000000 0.000000 0.000000 0.000000 0.000000 -0.000000 0.000000 0.000000 -0.952798 0.811747 0.274647 4.300629 12.513176 -3.620924 -3.047450 -9.787121 2.993449 0.000000 0.000000 0.000000 0.000000 0.000000 0.000000 -2.999058 -0.197729 15.858498 1.738250 -0.272504 0.560112 1.412097 0.824694 -1.339704 0.000000 0.000000 0.000000 -2.707653 -0.050470 16.377748 1.414620 -0.347320 0.043351 -1.174366 -0.365291 1.049580 0.000000 0.000000 0.000000
-14.212572 73.451615 351.642255 1.446781 -0.437879 -16.555662 -0.518607 -0.251664 16.587263 -0.877720 0.531681 -0.019785 -0.000000 0.000000 0.000000 0.000000 0.000000 0.000000 8.120703 6.326553 2.702703 -9.975038 -6.359970 -3.350998 -0.525433 1.398469 1.758656 -5.468951 -0.270955 -2.666410 0.000000 0.000000 0.000000 0.000000 0.000000 0.000000 -0.825329 0.247873 -0.037382 -0.341835 0.969748 0.401344 5.436809 14.748445 -4.458952 -4.593851 -11.732903 3.228563 0.000000 0.000000 0.000000 0.000000 0.000000 0.000000 -3.657497 -0.201495 15.873504 2.121248 -0.386040 0.691295 1.736951 1.028695 -1.654351 0.000000 0.000000 0.000000 -3.335402 0.029391 16.520515 1.742343 -0.539636 0.049564 -1.457347 -0.528625 1.312248 0.000000 0.000000 0.000000
-14.029881 73.536294 351.756646 1.621781 -0.480554 -16.563411 -0.526173 -0.297533 16.601256 -0.298351 0.225583 0.023008 -0.733757 0.390955 -0.048371 0.000000 0.000000 0.000000 7.297406 6.561992 2.893677 -10.374156 -6.529452 -3.635468 0.425327 2.553317 1.917316 -7.869271 -0.890476 -3.131669 0.000000 0.000000 0.000000 0.000000 0.000000 0.000000 -1.708572 0.763196 -0.064453 -0.347290 1.317379 0.474493 6.432032 16.348930 -5.144906 -6.459811 -13.355004 3.123377 0.000000 0.000000 0.000000 0.000000 0.000000 0.000000 -4.148363 -0.164037 15.782148 2.408436 -0.512100 0.795245 1.988876 1.199991 -1.902864 0.000000 0.000000 0.000000 -3.825942 0.168099 16.534990 1.997991 -0.770162 0.051722 -1.686200 -0.711748 1.531506 0.000000 0.000000 0.000000
-13.926280 73.547218 351.907650 1.688240 -0.515703 -16.729134 -0.453858 -0.333892 16.772053 -0.274212 0.242315 0.029490 -0.882571 0.463606 -0.057567 0.000000 0.000000 0.000000 3.854738 3.642163 3.322339 -8.410534 -5.090250 -3.515423 3.522114 5.894631 1.930247 -12.375528 -3.390737 -4.512266 0.000000 0.000000 0.000000 0.000000 0.000000 0.000000 -1.987974 1.045967 -0.030866 -0.273766 1.846430 0.536412 7.162962 17.660869 -5.836225 -8.988948 -14.793813 2.697935 0.000000 0.000000 0.000000 0.000000 0.000000 0.000000 -4.352973 -0.122982 15.907112 2.524574 -0.583395 0.839992 2.383412 1.516722 -2.307665 0.000000 0.000000 0.000000 -3.951664 0.183511 16.701850 1.808920 0.067169 0.037442 -1.658705 -1.381312 1.666571 0.000000 0.000000 0.000000
-13.909480 73.641243 351.990085 1.649275 -0.497973 -16.319191 -0.321095 -0.363752 16.364539 -0.231592 0.226901 0.035591 -1.006463 0.531322 -0.065078 0.000000 0.000000 0.000000 1.695412 1.888983 3.318906 -7.579990 -4.456411 -3.244021 5.827081 7.095718 1.016220 -17.773388 -5.853290 -6.332293 0.000000 0.000000 0.000000 0.000000 0.000000 0.000000 -2.222043 1.270845 -0.006922 -0.050108 2.531021 0.589183 8.137499 18.054850 -6.215298 -13.036778 -15.445834 1.486229 0.000000 0.000000 0.000000 0.000000 0.000000 0.000000 -4.384686 0.058362 15.474879 2.513821 0.073579 0.818615 2.560057 0.836592 -2.381319 0.000000 0.000000 0.000000 -4.041740 0.560089 16.321147 2.072599 -1.174898 0.038307 -1.832280 -0.693632 1.652600 0.000000 0.000000 0.000000
-13.836810 73.822090 351.987217 1.635373 -0.346413 -15.606117 -0.219247 -0.390181 15.651142 -0.212328 0.212928 0.039352 -1.106137 0.451907 -0.071166 0.000000 0.000000 0.000000 0.015413 0.613896 2.572117 -5.179948 -3.085542 -2.437325 6.496167 7.471739 0.598091 -18.559634 -4.214243 -4.289244 0.000000 0.000000 0.000000 0.000000 0.000000 0.000000 -2.336588 1.612447 0.097445 -0.122187 2.730774 0.571176 9.345414 18.463896 -6.558367 -16.683545 -15.750562 0.321776 0.000000 0.000000 0.000000 0.000000 0.000000 0.000000 -4.269025 -0.078639 14.772348 2.397253 0.302789 0.773674 2.189974 -3.628407 -0.682338 0.000000 0.000000 0.000000 -4.348406 0.954807 15.637108 2.295938 -1.743274 0.027187 -1.766288 -6.078040 2.375739 0.000000 0.000000 0.000000
